<?xml version="1.0" ?><!DOCTYPE svg  PUBLIC '-//W3C//DTD SVG 1.1//EN'  'http://www.w3.org/Graphics/SVG/1.1/DTD/svg11.dtd'><svg width="512px" height="512px" viewBox="0 0 512 512" enable-background="new 0 0 512 512" id="Layer_1" version="1.1" xml:space="preserve" xmlns="http://www.w3.org/2000/svg" xmlns:xlink="http://www.w3.org/1999/xlink"><g><g><path d="M398,428H114c-5.523,0-10-4.478-10-10V94c0-5.522,4.477-10,10-10h193.5c5.523,0,10,4.478,10,10s-4.477,10-10,10H124v304    h264V160c0-5.522,4.477-10,10-10s10,4.478,10,10v258C408,423.522,403.523,428,398,428z"/></g><g><path d="M398,170h-90.5c-5.523,0-10-4.478-10-10V94c0-3.764,2.113-7.209,5.468-8.914c3.356-1.705,7.384-1.382,10.424,0.834    l90.5,66c3.498,2.551,4.957,7.063,3.616,11.179S402.329,170,398,170z M317.5,150h49.817L317.5,113.67V150z"/></g><g><path d="M323.5,393h-135c-12.131,0-22-9.869-22-22V215c0-12.131,9.869-22,22-22h135c12.131,0,22,9.869,22,22v156    C345.5,383.131,335.631,393,323.5,393z M188.5,213c-1.103,0-2,0.897-2,2v156c0,1.103,0.897,2,2,2h135c1.103,0,2-0.897,2-2V215    c0-1.103-0.897-2-2-2H188.5z"/></g><g><path d="M306.708,257.334h-99.833c-5.523,0-10-4.478-10-10s4.477-10,10-10h99.833c5.523,0,10,4.478,10,10    S312.231,257.334,306.708,257.334z"/></g><g><path d="M306.708,290.667h-99.833c-5.523,0-10-4.478-10-10s4.477-10,10-10h99.833c5.523,0,10,4.478,10,10    S312.231,290.667,306.708,290.667z"/></g><g><path d="M306.708,324.001h-99.833c-5.523,0-10-4.478-10-10s4.477-10,10-10h99.833c5.523,0,10,4.478,10,10    S312.231,324.001,306.708,324.001z"/></g><g><path d="M305.125,357.334h-99.833c-5.523,0-10-4.478-10-10s4.477-10,10-10h99.833c5.523,0,10,4.478,10,10    S310.648,357.334,305.125,357.334z"/></g><g><path d="M145.667,141.333c-5.523,0-10-4.478-10-10V94c0-5.522,4.477-10,10-10s10,4.478,10,10v37.333    C155.667,136.855,151.19,141.333,145.667,141.333z"/></g><g><path d="M180,141.333c-5.523,0-10-4.478-10-10V94c0-5.522,4.477-10,10-10s10,4.478,10,10v37.333    C190,136.855,185.523,141.333,180,141.333z"/></g><g><path d="M214.333,141.333c-5.523,0-10-4.478-10-10V94c0-5.522,4.477-10,10-10s10,4.478,10,10v37.333    C224.333,136.855,219.856,141.333,214.333,141.333z"/></g></g></svg>